M48
;DRILL file {KiCad 4.0.7} date 05/30/18 05:48:32
;FORMAT={-:-/ absolute / inch / decimal}
FMAT,2
INCH,TZ
T1C0.020
T2C0.035
T3C0.039
%
G90
G05
M72
T1
X5.3Y-3.82
T2
X4.74Y-3.62
X4.74Y-3.7184
X4.74Y-3.8169
X4.74Y-3.9153
X4.74Y-4.0137
X4.74Y-4.1121
X4.74Y-4.2106
X4.74Y-4.309
X4.74Y-4.4074
T3
X5.18Y-4.02
X5.18Y-4.38
X5.28Y-4.02
X5.28Y-4.38
X5.46Y-4.02
X5.46Y-4.38
X5.56Y-4.02
X5.56Y-4.38
X5.86Y-3.32
X5.86Y-3.5
X5.86Y-3.68
X5.86Y-3.86
X5.86Y-4.02
X5.86Y-4.2
X5.86Y-4.38
X5.86Y-4.56
X5.86Y-4.74
X5.96Y-3.32
X5.96Y-3.5
X5.96Y-3.68
X5.96Y-3.86
X5.96Y-4.02
X5.96Y-4.2
X5.96Y-4.38
X5.96Y-4.56
X5.96Y-4.74
X6.32Y-3.32
X6.32Y-3.5
X6.32Y-3.68
X6.32Y-3.86
X6.32Y-4.02
X6.32Y-4.2
X6.32Y-4.38
X6.32Y-4.56
X6.32Y-4.74
X6.42Y-3.32
X6.42Y-3.5
X6.42Y-3.68
X6.42Y-3.86
X6.42Y-4.02
X6.42Y-4.2
X6.42Y-4.38
X6.42Y-4.56
X6.42Y-4.74
T0
M30
